<svg width="16" height="16" viewBox="0 0 16 16" fill="none" xmlns="http://www.w3.org/2000/svg">
<path d="M1 14.874H0.4C0.4 15.2054 0.668629 15.474 1 15.474L1 14.874ZM14.5915 14.874V15.474C14.9229 15.474 15.1915 15.2054 15.1915 14.874H14.5915ZM14.5915 2.51611H15.1915C15.1915 2.18474 14.9229 1.91611 14.5915 1.91611V2.51611ZM1 2.51611V1.91611C0.668629 1.91611 0.4 2.18474 0.4 2.51611H1ZM1 5.39717C0.668629 5.39717 0.4 5.6658 0.4 5.99717C0.4 6.32854 0.668629 6.59717 1 6.59717V5.39717ZM14.5915 6.59717C14.9229 6.59717 15.1915 6.32854 15.1915 5.99717C15.1915 5.6658 14.9229 5.39717 14.5915 5.39717V6.59717ZM1 15.474H14.5915V14.274H1V15.474ZM15.1915 14.874V2.51611H13.9915V14.874H15.1915ZM14.5915 1.91611H1V3.11611H14.5915V1.91611ZM0.4 2.51611V14.874H1.6V2.51611H0.4ZM1 6.59717H14.5915V5.39717H1V6.59717Z" fill="black"/>
<path d="M4.49453 1.34668C4.49453 1.01531 4.2259 0.74668 3.89453 0.74668C3.56316 0.74668 3.29453 1.01531 3.29453 1.34668H4.49453ZM3.29453 3.68797C3.29453 4.01934 3.56316 4.28797 3.89453 4.28797C4.2259 4.28797 4.49453 4.01934 4.49453 3.68797H3.29453ZM12.2958 1.34668C12.2958 1.01531 12.0272 0.74668 11.6958 0.74668C11.3644 0.74668 11.0958 1.01531 11.0958 1.34668H12.2958ZM11.0958 3.68797C11.0958 4.01934 11.3644 4.28797 11.6958 4.28797C12.0272 4.28797 12.2958 4.01934 12.2958 3.68797H11.0958ZM3.29453 1.34668V3.68797H4.49453V1.34668H3.29453ZM11.0958 1.34668V3.68797H12.2958V1.34668H11.0958Z" fill="black"/>
</svg>
