<svg width="562" height="311" viewBox="0 0 562 311" fill="none" xmlns="http://www.w3.org/2000/svg">
<path opacity="0.6" d="M426.449 16.7651H388.549V310.114H426.449V16.7651Z" fill="#9BC1F9"/>
<path opacity="0.6" d="M373.522 106.244H335.622V310.114H373.522V106.244Z" fill="#9BC1F9"/>
<path opacity="0.6" d="M480.14 80.3213H442.24V310.114H480.14V80.3213Z" fill="#9BC1F9"/>
<path opacity="0.6" d="M320.594 71.2847H282.695V310.114H320.594V71.2847Z" fill="#9BC1F9"/>
<path opacity="0.6" d="M267.667 142.095H229.767V310.111H267.667V142.095Z" fill="#9BC1F9"/>
<g style="mix-blend-mode:multiply" opacity="0.3">
<path d="M426.449 84.3735H388.549V310.114H426.449V84.3735Z" fill="#9BC1F9"/>
</g>
<g style="mix-blend-mode:multiply" opacity="0.3">
<path d="M373.522 153.229H335.622V310.112H373.522V153.229Z" fill="#9BC1F9"/>
</g>
<g style="mix-blend-mode:multiply" opacity="0.3">
<path d="M480.14 133.282H442.24V310.114H480.14V133.282Z" fill="#9BC1F9"/>
</g>
<g style="mix-blend-mode:multiply" opacity="0.3">
<path d="M320.594 126.328H282.695V310.114H320.594V126.328Z" fill="#9BC1F9"/>
</g>
<g style="mix-blend-mode:multiply" opacity="0.3">
<path d="M267.667 180.819H229.767V310.114H267.667V180.819Z" fill="#9BC1F9"/>
</g>
<path d="M498.561 19.0093L468.36 41.8475L479.881 42.5832L407.79 169.46L367.877 109.617L311.411 241.323L275.092 189.736L229.824 253.725L232.672 265.178L275.073 205.533L313.465 260.063L369.722 128.839L408.45 186.901L488.261 46.4356L495.671 54.4051L498.561 19.0093Z" fill="#5183BF"/>
<path d="M195.3 225.291C151.963 190.78 115.55 146.144 87.9798 93.7329L28.3708 141.616C60.249 202.214 102.351 253.824 152.457 293.717L195.3 225.291Z" fill="#3C8F7C"/>
<path d="M78.6448 106.248L41.6188 136.467C44.5577 141.952 43.4911 149.339 39.1129 153.089C67.1349 202.639 102.257 245.69 143.152 280.624C146.496 275.605 152.797 274.631 157.336 278.306L184.35 235.814C180.189 232.433 179.588 225.52 182.93 220.505C147.016 189.828 116.17 152.022 91.5674 108.509C87.1817 112.258 81.3492 111.291 78.6448 106.248Z" fill="#96D9C9"/>
<path d="M128.522 219.519C137.775 207.578 137.686 189.962 128.959 179.426C120.231 168.89 105.254 168.421 94.9168 179.047C84.5795 189.674 83.6017 208.501 93.4417 220.336C103.282 232.171 119.289 231.441 128.522 219.519Z" fill="#50BFA5"/>
<path d="M121.033 180.494C120.124 181.973 119.215 183.454 118.308 184.935C112.623 183.713 107.744 185.77 105.296 189.618C102.83 193.502 103.486 196.846 107.883 200.936C110.979 203.934 112.091 205.487 111.232 206.934C110.503 208.157 108.773 209.003 105.707 207.777C104.333 207.236 103.052 206.483 101.911 205.546C100.689 204.526 98.6609 204.703 97.4174 205.915C96.2172 207.085 96.2138 208.81 97.4373 209.768C98.6645 210.706 99.9974 211.497 101.409 212.125L99.0719 215.97C100.637 216.607 102.206 217.235 103.781 217.855L106.266 213.695C111.94 214.79 116.684 212.839 118.916 208.973C121.38 204.696 119.211 201.233 115.22 197.707C112.462 195.26 111.643 193.61 112.667 191.953C113.739 190.211 116.091 189.981 118.682 191.009C120.318 191.662 121.83 192.593 123.15 193.759C124.329 194.791 126.393 194.562 127.606 193.273L127.74 193.133C128.841 191.962 128.853 190.345 127.78 189.432C126.301 188.195 124.658 187.169 122.897 186.384L125.392 182.239C123.936 181.664 122.483 181.082 121.033 180.494Z" fill="#3C8F7C"/>
<path d="M162.665 250.247C152.789 241.789 143.28 232.838 134.137 223.392L129.441 229.498C138.704 239.069 148.349 248.147 158.376 256.732C159.802 254.569 161.232 252.408 162.665 250.247Z" fill="#50BFA5"/>
<path d="M186.462 211.377C132.028 204.473 78.6448 186.26 29.1141 157.699L0.884033 223.873C58.1422 256.897 119.867 277.961 182.805 285.936C184.02 261.085 185.239 236.232 186.462 211.377Z" fill="#3C8F7C"/>
<path d="M27.1529 172.043C21.381 185.871 15.6103 199.7 9.84082 213.53C15.0662 216.488 17.7574 222.859 15.7962 227.903C64.3133 253.981 115.801 271.547 168.326 279.94C168.77 274.376 173.755 270.626 179.484 271.401L182.117 224.909C176.851 224.195 172.956 218.992 173.4 213.432C127.273 206.056 82.0547 190.635 39.4552 167.736C37.4903 172.776 31.9623 174.76 27.1529 172.043Z" fill="#96D9C9"/>
<path d="M125.768 238.359C127.949 224.51 119.257 210.57 106.538 206.332C93.8142 202.127 80.6136 208.801 76.8463 222.125C73.0791 235.449 81.4439 250.849 95.7584 255.599C110.073 260.35 123.595 252.186 125.768 238.359Z" fill="#50BFA5"/>
<path d="M109.29 211.998C108.507 213.417 107.723 214.836 106.94 216.254C101.477 214.964 96.9475 216.862 94.8192 220.553C92.6852 224.267 93.4858 227.513 97.8899 231.552C100.997 234.513 102.137 236.036 101.394 237.421C100.768 238.593 99.1687 239.379 96.1856 238.128C94.8398 237.573 93.5833 236.823 92.4568 235.901C91.2441 234.901 89.3221 235.025 88.2069 236.174C87.1288 237.284 87.2193 238.955 88.4351 239.904C89.6442 240.831 90.9529 241.621 92.337 242.258L90.3278 245.919C91.8501 246.563 93.3766 247.201 94.9072 247.832L97.0438 243.852C102.495 245.016 106.897 243.217 108.808 239.509C110.919 235.416 108.67 232.023 104.683 228.536C101.93 226.116 101.071 224.502 101.947 222.923C102.872 221.258 105.096 221.078 107.614 222.123C109.223 222.793 110.712 223.72 112.023 224.868C113.199 225.894 115.148 225.706 116.224 224.474C116.264 224.431 116.305 224.386 116.344 224.343C117.327 223.23 117.252 221.666 116.183 220.761C114.724 219.551 113.114 218.536 111.394 217.74C112.109 216.416 112.824 215.091 113.542 213.767C112.117 213.185 110.7 212.595 109.29 211.998Z" fill="#3C8F7C"/>
<path d="M161.466 101.525C160.144 101.091 158.85 100.575 157.591 99.98C156.173 99.2973 154.335 98.4992 153.174 98.3214C150.728 97.9432 146.53 98.1947 144.209 100.702C141.321 103.827 136.187 101.27 137.212 117.627C138.382 136.144 148.714 134.111 148.964 133.797C149.213 133.483 158.178 121.95 158.178 121.95C158.178 121.95 161.311 128.783 161.311 128.532C161.311 128.28 177.334 106.849 161.466 101.525Z" fill="#0E2E35"/>
<path d="M172.356 223.598C129.528 240.519 82.2759 248.254 33.0856 246.397C36.3498 267.326 39.6146 288.255 42.8801 309.185C99.7544 311.333 154.389 302.39 203.907 282.825L172.356 223.598Z" fill="#3C8F7C"/>
<path d="M38.2335 258.308C40.3769 271.376 42.5203 284.444 44.6636 297.511C49.8304 297.664 54.7135 301.495 55.6005 306.21C102.917 306.556 148.493 299.097 190.614 284.11C188.384 279.622 190.294 274.676 194.818 272.936C188.346 260.58 181.873 248.225 175.399 235.869C171.238 237.469 166.007 235.033 163.779 230.547C126.791 243.708 86.7695 250.259 45.2196 249.954C46.1028 254.647 42.988 258.448 38.2335 258.308Z" fill="#96D9C9"/>
<path d="M140.52 269.321C135.752 257.705 123.022 250.467 111.811 252.387C100.609 254.336 94.0545 264.905 97.4246 276.762C100.795 288.62 113.958 297.123 126.562 294.939C139.167 292.754 145.282 280.914 140.52 269.321Z" fill="#50BFA5"/>
<path d="M115.851 255.715C116.298 257.088 116.746 258.461 117.193 259.834C122.022 259.942 125.573 262.55 126.81 266.137C128.053 269.755 126.878 272.331 122.53 274.786C119.448 276.611 118.249 277.651 118.668 278.99C119.02 280.125 120.255 281.138 122.973 280.735C124.188 280.564 125.37 280.204 126.473 279.667C127.654 279.086 129.263 279.616 130.033 280.834C130.778 282.014 130.447 283.408 129.276 283.947C128.103 284.467 126.873 284.848 125.611 285.081C125.989 286.267 126.372 287.452 126.759 288.637C125.372 288.846 123.981 289.05 122.585 289.248L121.382 285.407C116.584 285.193 113.127 282.699 112.074 279.136C110.909 275.202 113.331 272.821 117.241 270.742C119.945 269.297 120.917 268.119 120.416 266.582C119.885 264.967 118.029 264.325 115.735 264.655C114.286 264.867 112.883 265.327 111.59 266.014C110.438 266.625 108.815 266.037 108.083 264.76L108.002 264.621C107.338 263.461 107.641 262.151 108.685 261.621C110.114 260.91 111.635 260.401 113.205 260.108C112.8 258.828 112.395 257.548 111.989 256.267C113.276 256.094 114.563 255.91 115.851 255.715Z" fill="#3C8F7C"/>
<path d="M176.81 257.455C166.624 261.064 156.232 264.205 145.635 266.877L148.094 272.792C158.831 270.087 169.368 266.902 179.705 263.238L176.81 257.455Z" fill="#50BFA5"/>
<path d="M101.695 290.911V306.245C101.695 308.724 129.348 310.732 163.462 310.732C197.575 310.732 225.227 308.724 225.227 306.245V290.911H101.695Z" fill="#E59F39"/>
<path d="M146.394 310.56V290.911H101.695V306.245C101.695 308.293 120.582 310.021 146.394 310.56Z" fill="#EAB054"/>
<path d="M148.474 310.6C153.272 310.687 158.293 310.732 163.462 310.732C171.163 310.732 178.535 310.63 185.333 310.443V290.911H148.474V310.6Z" fill="#EAB054"/>
<path d="M187.809 310.371C209.815 309.685 225.226 308.102 225.226 306.245V290.911H187.809V310.371Z" fill="#EAB054"/>
<path d="M163.46 296.952C197.572 296.952 225.225 294.943 225.225 292.464C225.225 289.986 197.572 287.977 163.46 287.977C129.348 287.977 101.695 289.986 101.695 292.464C101.695 294.943 129.348 296.952 163.46 296.952Z" fill="#E59F39"/>
<path d="M214.324 292.465C214.324 294.184 191.552 295.577 163.462 295.577C135.372 295.577 112.588 294.184 112.588 292.465C112.588 290.745 135.36 289.354 163.462 289.354C191.563 289.354 214.324 290.747 214.324 292.465Z" fill="#F7CC7F"/>
<path d="M91.1287 276.403V291.737C91.1287 294.214 118.782 296.225 152.894 296.225C187.005 296.225 214.658 294.214 214.658 291.737V276.403H91.1287Z" fill="#E59F39"/>
<path d="M135.827 296.051V276.403H91.1287V291.737C91.1287 293.785 110.016 295.513 135.827 296.051Z" fill="#EAB054"/>
<path d="M137.908 296.092C142.706 296.177 147.725 296.225 152.894 296.225C160.595 296.225 167.966 296.122 174.765 295.935V276.403H137.908V296.092Z" fill="#EAB054"/>
<path d="M177.241 295.861C199.247 295.175 214.658 293.592 214.658 291.737V276.403H177.241V295.861Z" fill="#EAB054"/>
<path d="M152.892 280.728C187.003 280.728 214.657 278.719 214.657 276.24C214.657 273.762 187.003 271.752 152.892 271.752C118.78 271.752 91.1267 273.762 91.1267 276.24C91.1267 278.719 118.78 280.728 152.892 280.728Z" fill="#E59F39"/>
<path d="M203.756 276.24C203.756 277.959 180.984 279.351 152.894 279.351C124.804 279.351 102.031 277.959 102.031 276.24C102.031 274.521 124.804 273.127 152.894 273.127C180.984 273.127 203.756 274.521 203.756 276.24Z" fill="#F7CC7F"/>
<path d="M98.1697 259.747V275.079C98.1697 277.558 125.823 279.567 159.935 279.567C194.046 279.567 221.7 277.558 221.7 275.079V259.747H98.1697Z" fill="#E59F39"/>
<path d="M142.866 279.395V259.747H98.1697V275.079C98.1697 277.127 117.055 278.856 142.866 279.395Z" fill="#EAB054"/>
<path d="M144.949 279.435C149.747 279.522 154.766 279.567 159.935 279.567C167.636 279.567 175.008 279.465 181.806 279.278V259.747H144.949V279.435Z" fill="#EAB054"/>
<path d="M184.282 279.206C206.288 278.519 221.699 276.936 221.699 275.079V259.747H184.282V279.206Z" fill="#EAB054"/>
<path d="M159.933 264.07C194.044 264.07 221.698 262.061 221.698 259.583C221.698 257.104 194.044 255.095 159.933 255.095C125.821 255.095 98.1677 257.104 98.1677 259.583C98.1677 262.061 125.821 264.07 159.933 264.07Z" fill="#E59F39"/>
<path d="M210.797 259.583C210.797 261.302 188.025 262.696 159.935 262.696C131.844 262.696 109.072 261.302 109.072 259.583C109.072 257.864 131.844 256.472 159.935 256.472C188.025 256.472 210.797 257.865 210.797 259.583Z" fill="#F7CC7F"/>
<path d="M91.1287 243.318V258.65C91.1287 261.13 118.782 263.14 152.894 263.14C187.005 263.14 214.658 261.13 214.658 258.65V243.318H91.1287Z" fill="#E59F39"/>
<path d="M135.827 262.966V243.318H91.1287V258.65C91.1287 260.7 110.016 262.427 135.827 262.966Z" fill="#EAB054"/>
<path d="M137.908 263.006C142.706 263.093 147.725 263.14 152.894 263.14C160.595 263.14 167.966 263.036 174.765 262.849V243.318H137.908V263.006Z" fill="#EAB054"/>
<path d="M177.241 262.777C199.247 262.09 214.658 260.508 214.658 258.65V243.318H177.241V262.777Z" fill="#EAB054"/>
<path d="M152.892 247.643C187.003 247.643 214.657 245.634 214.657 243.155C214.657 240.677 187.003 238.667 152.892 238.667C118.78 238.667 91.1267 240.677 91.1267 243.155C91.1267 245.634 118.78 247.643 152.892 247.643Z" fill="#E59F39"/>
<path d="M203.756 243.156C203.756 244.873 180.984 246.267 152.894 246.267C124.804 246.267 102.031 244.873 102.031 243.156C102.031 241.439 124.804 240.043 152.894 240.043C180.984 240.043 203.756 241.437 203.756 243.156Z" fill="#F7CC7F"/>
<path d="M523.58 291.319V306.07C523.58 308.455 496.985 310.388 464.182 310.388C431.38 310.388 404.783 308.455 404.783 306.07V291.319H523.58Z" fill="#E59F39"/>
<path d="M480.594 310.212V291.319H523.579V306.07C523.579 308.033 505.416 309.696 480.594 310.212Z" fill="#EAB054"/>
<path d="M478.603 310.252C473.988 310.335 469.162 310.38 464.192 310.38C456.786 310.38 449.696 310.282 443.158 310.1V291.319H478.603V310.252Z" fill="#EAB054"/>
<path d="M440.767 310.032C419.605 309.37 404.783 307.842 404.783 306.06V291.309H440.767V310.032Z" fill="#EAB054"/>
<path d="M464.181 295.477C496.985 295.477 523.578 293.545 523.578 291.161C523.578 288.778 496.985 286.846 464.181 286.846C431.376 286.846 404.783 288.778 404.783 291.161C404.783 293.545 431.376 295.477 464.181 295.477Z" fill="#E59F39"/>
<path d="M415.27 291.162C415.27 292.815 437.168 294.154 464.182 294.154C491.196 294.154 513.095 292.815 513.095 291.162C513.095 289.509 491.195 288.17 464.182 288.17C437.17 288.17 415.27 289.509 415.27 291.162Z" fill="#F7CC7F"/>
<path d="M533.741 275.715V290.466C533.741 292.849 507.149 294.782 474.344 294.782C441.539 294.782 414.947 292.849 414.947 290.466V275.715H533.741Z" fill="#E59F39"/>
<path d="M490.756 294.61V275.715H533.741V290.466C533.741 292.431 515.578 294.095 490.756 294.61Z" fill="#EAB054"/>
<path d="M488.757 294.65C484.142 294.733 479.314 294.776 474.344 294.776C466.938 294.776 459.848 294.678 453.31 294.498V275.715H488.757V294.65Z" fill="#EAB054"/>
<path d="M450.931 294.428C429.768 293.768 414.947 292.239 414.947 290.456V275.705H450.931V294.428Z" fill="#EAB054"/>
<path d="M474.344 279.873C507.148 279.873 533.741 277.941 533.741 275.557C533.741 273.174 507.148 271.242 474.344 271.242C441.54 271.242 414.947 273.174 414.947 275.557C414.947 277.941 441.54 279.873 474.344 279.873Z" fill="#E59F39"/>
<path d="M474.344 278.55C501.357 278.55 523.256 277.21 523.256 275.558C523.256 273.905 501.357 272.566 474.344 272.566C447.33 272.566 425.432 273.905 425.432 275.558C425.432 277.21 447.33 278.55 474.344 278.55Z" fill="#F7CC7F"/>
<path d="M526.971 259.696V274.447C526.971 276.832 500.378 278.763 467.573 278.763C434.768 278.763 408.176 276.832 408.176 274.447V259.696H526.971Z" fill="#E59F39"/>
<path d="M483.985 278.586V259.691H526.97V274.443C526.97 276.412 508.807 278.074 483.985 278.586Z" fill="#EAB054"/>
<path d="M481.984 278.631C477.372 278.714 472.543 278.757 467.573 278.757C460.167 278.757 453.077 278.659 446.539 278.479V259.696H481.984V278.631Z" fill="#EAB054"/>
<path d="M444.16 278.409C422.998 277.749 408.176 276.221 408.176 274.438V259.687H444.16V278.409Z" fill="#EAB054"/>
<path d="M467.571 263.857C500.376 263.857 526.969 261.924 526.969 259.541C526.969 257.157 500.376 255.225 467.571 255.225C434.767 255.225 408.174 257.157 408.174 259.541C408.174 261.924 434.767 263.857 467.571 263.857Z" fill="#E59F39"/>
<path d="M467.571 262.534C494.585 262.534 516.484 261.194 516.484 259.542C516.484 257.889 494.585 256.55 467.571 256.55C440.558 256.55 418.659 257.889 418.659 259.542C418.659 261.194 440.558 262.534 467.571 262.534Z" fill="#F7CC7F"/>
<path d="M533.741 243.899V258.65C533.741 261.035 507.149 262.968 474.344 262.968C441.539 262.968 414.947 261.035 414.947 258.65V243.899H533.741Z" fill="#E59F39"/>
<path d="M490.756 262.792V243.899H533.741V258.65C533.741 260.621 515.578 262.276 490.756 262.792Z" fill="#EAB054"/>
<path d="M488.757 262.832C484.142 262.915 479.314 262.96 474.344 262.96C466.938 262.96 459.848 262.862 453.31 262.681V243.899H488.757V262.832Z" fill="#EAB054"/>
<path d="M450.931 262.612C429.768 261.95 414.947 260.422 414.947 258.64V243.889H450.931V262.612Z" fill="#EAB054"/>
<path d="M474.344 248.057C507.148 248.057 533.741 246.125 533.741 243.742C533.741 241.358 507.148 239.426 474.344 239.426C441.54 239.426 414.947 241.358 414.947 243.742C414.947 246.125 441.54 248.057 474.344 248.057Z" fill="#E59F39"/>
<path d="M474.344 246.734C501.357 246.734 523.256 245.394 523.256 243.742C523.256 242.09 501.357 240.75 474.344 240.75C447.33 240.75 425.432 242.09 425.432 243.742C425.432 245.394 447.33 246.734 474.344 246.734Z" fill="#F7CC7F"/>
<path d="M561.377 225.979L557.81 238.437C557.234 240.451 534.301 235.647 506.587 227.71C478.873 219.772 456.877 211.704 457.453 209.69L461.022 197.235L561.377 225.979Z" fill="#E59F39"/>
<path d="M520.493 231.54L525.064 215.578L561.375 225.98L557.809 238.437C557.334 240.101 541.58 237.11 520.493 231.54Z" fill="#EAB054"/>
<path d="M518.793 231.09C514.874 230.044 510.786 228.913 506.587 227.71C500.331 225.917 494.366 224.117 488.885 222.384L493.424 206.517L523.37 215.094L518.793 231.09Z" fill="#EAB054"/>
<path d="M486.892 221.751C469.173 216.077 457.022 211.194 457.454 209.69L461.022 197.235L491.42 205.934L486.892 221.751Z" fill="#EAB054"/>
<path d="M461.06 197.102C460.493 199.114 482.48 207.182 510.194 215.12C537.907 223.057 560.838 227.861 561.415 225.847C561.992 223.833 539.995 215.767 512.282 207.827C484.568 199.888 461.637 195.088 461.06 197.102Z" fill="#E59F39"/>
<path d="M469.916 199.639C469.517 201.035 487.694 207.467 510.513 214.012C533.332 220.558 552.157 224.717 552.558 223.321C552.959 221.925 534.781 215.493 511.962 208.948C489.142 202.402 470.317 198.244 469.916 199.639Z" fill="#F7CC7F"/>
<path d="M528.924 140.245L532.724 152.634C533.338 154.637 511.493 163.112 483.93 171.563C456.368 180.015 433.532 185.244 432.917 183.242L429.118 170.854L528.924 140.245Z" fill="#E59F39"/>
<path d="M497.68 167.195L492.812 151.32L528.924 140.245L532.724 152.634C533.23 154.289 518.4 160.366 497.68 167.195Z" fill="#EAB054"/>
<path d="M496.002 167.743C492.148 169.003 488.102 170.283 483.926 171.564C477.704 173.472 471.724 175.216 466.185 176.749L461.345 160.969L491.124 151.836L496.002 167.743Z" fill="#EAB054"/>
<path d="M464.173 177.304C446.223 182.202 433.376 184.736 432.919 183.242L429.119 170.855L459.35 161.588L464.173 177.304Z" fill="#EAB054"/>
<path d="M429.08 170.723C429.694 172.725 452.531 167.496 480.093 159.044C507.656 150.593 529.497 142.118 528.886 140.115C528.275 138.113 505.435 143.34 477.871 151.792C450.307 160.243 428.465 168.72 429.08 170.723Z" fill="#E59F39"/>
<path d="M437.889 168.021C438.314 169.409 457.058 164.893 479.753 157.932C502.447 150.97 520.501 144.203 520.075 142.815C519.65 141.427 500.906 145.943 478.211 152.903C455.517 159.862 437.461 166.627 437.889 168.021Z" fill="#F7CC7F"/>
<path d="M203.256 294.375C203.256 294.375 204.724 302.165 204.726 302.182C204.807 303.196 204.777 305.762 204.996 306.649C205.821 309.982 219.833 301.884 216.154 301.233C215.822 301.174 213.41 298.735 212.858 297.702C211.897 295.904 211.014 292.554 211.014 292.554L203.256 294.375Z" fill="#F7A491"/>
<path d="M215.46 300.747C215.46 300.747 211.844 301.643 210.002 301.826C208.16 302.01 205.8 299.15 204.48 299.691C203.026 300.287 202.235 309.359 202.235 309.359C202.235 309.359 225.348 310.413 230.809 308.903C232.975 308.306 222.653 303.502 215.46 300.747Z" fill="#F47458"/>
<path d="M235.482 294.019C235.482 294.019 236.952 301.809 236.952 301.826C237.035 302.842 237.003 305.406 237.222 306.293C238.047 309.626 251.802 302.061 248.125 301.41C247.792 301.352 245.64 298.384 245.088 297.346C244.127 295.548 243.244 292.198 243.244 292.198L235.482 294.019Z" fill="#F7A491"/>
<path d="M247.333 300.747C247.333 300.747 243.715 301.643 241.875 301.826C240.035 302.01 237.673 299.15 236.353 299.691C234.898 300.287 234.108 309.359 234.108 309.359C234.108 309.359 257.22 310.413 262.682 308.903C264.847 308.306 254.525 303.502 247.333 300.747Z" fill="#F47458"/>
<path d="M155.347 216.032L197.394 206.279C197.394 206.279 216.249 201.294 220.801 207.145C225.353 212.997 244.681 293.762 244.681 293.762C244.681 293.762 234.711 294.629 234.06 294.196L210.723 252.778C208.503 248.838 207.043 244.516 206.419 240.037L204.756 228.168L187.635 233.153C187.635 233.153 167.912 237.488 159.893 232.504C151.874 227.521 155.347 216.032 155.347 216.032Z" fill="#0E2E35"/>
<path d="M171.494 143.542C172.157 143.568 173.977 144.175 176.64 149.189C180.044 155.589 185.004 174.926 185.004 174.926L170.177 180.428L168.273 176.392L165.135 145.321C165.135 145.321 171.31 143.534 171.494 143.542Z" fill="#EAB054"/>
<path d="M151.895 140.754C156.135 140.754 166.624 141.993 171.494 143.543C171.494 143.543 175.07 174.181 168.279 197.462C166.766 202.674 169.538 219.065 169.538 219.065L125.605 218.498C125.605 218.498 130.81 178.86 128.843 172.458C126.876 166.056 126.838 143.744 126.838 143.744C126.838 143.744 127.141 143.697 136.711 142.042C141.732 141.227 146.808 140.796 151.895 140.754Z" fill="#F7CC7F"/>
<path d="M126.358 147.149C130.466 145.613 132.474 182.499 133.028 197.682C140.302 198.378 152.981 197.682 156.139 197.449C157.624 197.339 161.056 196.089 162.524 195.896C164.037 195.707 165.408 195.596 166.151 195.724C166.425 195.771 174.007 198.862 174.661 199.541C175.465 200.38 177.64 202.5 177.273 203.418C176.906 204.335 173.092 200.863 173.092 200.863L171.227 199.821C173.547 202.09 177.975 205.057 177.337 206.141C176.7 207.225 172.721 204.178 169.875 202.118C172.316 204.316 175.359 208.25 174.65 208.862C174.022 209.413 170.573 204.861 166.885 203.548C165.519 203.062 164.158 204.409 163.082 204.571C162.293 204.69 161.073 204.95 160.298 204.726L156.595 204.369C155.566 204.435 154.544 204.584 153.539 204.813C151.944 205.152 149.329 205.507 147.298 206.001C135.606 208.849 131.706 210.162 128.126 210.162C117.278 210.167 116.649 150.783 126.358 147.149Z" fill="#F7A491"/>
<path d="M118.562 181.784C117.793 166.233 117.904 147.065 126.653 143.795C130.105 142.504 136.189 150.263 135.094 182.1C130.432 182.484 123.569 182.794 118.562 181.784Z" fill="#EAB054"/>
<path d="M215.99 172.281L174.599 174.983C174.063 175.019 173.551 175.212 173.125 175.54C172.7 175.867 172.382 176.313 172.21 176.822L161.497 208.738L138.677 210.228C138.371 210.248 138.085 210.389 137.883 210.62C137.68 210.851 137.578 211.153 137.597 211.459C137.618 211.765 137.759 212.051 137.99 212.253C138.221 212.455 138.522 212.557 138.829 212.537L203.775 208.295C204.649 208.238 205.488 207.93 206.19 207.407C206.893 206.884 207.429 206.169 207.735 205.349L218.704 175.923C218.861 175.5 218.911 175.044 218.847 174.597C218.783 174.15 218.608 173.726 218.338 173.364C218.068 173.001 217.712 172.712 217.302 172.523C216.892 172.334 216.441 172.251 215.99 172.281Z" fill="#F47458"/>
<path d="M195.366 192.002C195.283 193.426 194.205 194.523 192.959 194.451C191.712 194.38 190.767 193.167 190.848 191.741C190.929 190.315 192.009 189.22 193.256 189.283C194.502 189.345 195.448 190.578 195.366 192.002Z" fill="white"/>
<path d="M125.624 217.488L171.444 209.578C171.444 209.578 191.255 206.552 195.807 212.414C200.359 218.277 213.584 294.124 213.584 294.124C213.584 294.124 203.614 294.992 202.965 294.557C202.46 294.222 190.391 268.933 184.968 257.539C183.25 253.922 182.041 250.085 181.375 246.136L179.633 235.812L173.867 237.796C163.741 241.312 152.945 242.468 142.305 241.174C137.853 240.622 133.698 239.661 131.12 238.069C123.09 233.08 125.624 217.488 125.624 217.488Z" fill="#184655"/>
<path d="M153.624 135.164L154.516 141.783C154.516 141.783 156.513 151.315 153.949 153.153C151.384 154.991 143.018 141.511 143.018 141.511L143.901 124.745L153.624 135.164Z" fill="#F7A491"/>
<path d="M143.61 130.177C145.733 135.896 150.796 139.412 154.39 140.768L153.633 135.156L143.905 124.736L143.61 130.177Z" fill="#F47458"/>
<path d="M153.096 106.499C158.543 105.623 163.426 109.988 163.291 115.422C163.22 118.264 162.967 121.098 162.535 123.908C161.351 131.546 156.122 138.271 152.665 137.672C149.208 137.072 140.508 130.485 142.04 119.613C142.995 112.903 147.381 107.418 153.096 106.499Z" fill="#F7A491"/>
<path d="M144.449 120.909C144.156 122.589 142.808 123.757 141.423 123.519C140.039 123.281 139.173 121.724 139.466 120.045C139.759 118.366 141.108 117.197 142.481 117.437C143.854 117.677 144.741 119.23 144.449 120.909Z" fill="#F7A491"/>
<path d="M142.49 117.437C142.49 117.437 146.67 118.472 148.222 115.792C149.775 113.112 155.32 107.33 162.372 109.728C169.425 112.127 156.165 103.898 155.602 103.898C155.038 103.898 148.268 103.851 148.268 103.851C148.268 103.851 143.05 108.128 142.863 108.599C142.676 109.07 141.161 114.194 141.161 114.194L142.49 117.437Z" fill="#0E2E35"/>
<path d="M347.325 309.707H451.381V271.835H347.325V309.707Z" fill="#50BFA5"/>
<path d="M347.325 282.228H451.381V277.356H347.325V282.228Z" fill="#96D9C9"/>
<path d="M347.325 291.745H451.381V286.873H347.325V291.745Z" fill="#96D9C9"/>
<path d="M347.325 301.259H451.381V296.388H347.325V301.259Z" fill="#96D9C9"/>
<path d="M347.325 309.709H451.381V304.837H347.325V309.709Z" fill="#96D9C9"/>
<path d="M386.062 309.707H407.703V271.835H386.062V309.707Z" fill="#F7CC7F"/>
<path d="M450.119 309.707H465.833V271.835H450.119V309.707Z" fill="#3C8F7C"/>
<path d="M535.921 310.027H19.02V310.886H535.921V310.027Z" fill="#0E2E35"/>
<path opacity="0.8" d="M236.26 24.8177C235.949 23.4721 235.372 22.2024 234.562 21.0837C233.752 19.965 232.726 19.0199 231.545 18.3044C230.364 17.5888 229.051 17.1172 227.685 16.9174C226.318 16.7176 224.925 16.7938 223.589 17.1413C222.03 13.8108 219.318 11.1572 215.955 9.67134C212.591 8.18543 208.803 7.96766 205.291 9.05828C203.463 6.02999 200.816 3.5807 197.655 1.99339C194.494 0.406088 190.948 -0.254441 187.427 0.0881262C183.907 0.430693 180.555 1.76238 177.759 3.9293C174.963 6.09623 172.838 9.00997 171.628 12.3339C169.671 11.2476 167.464 10.6909 165.226 10.719C162.987 10.7471 160.795 11.3589 158.866 12.4939C156.936 13.629 155.337 15.248 154.225 17.1908C153.113 19.1336 152.528 21.333 152.527 23.5714C152.527 23.9913 152.547 24.4067 152.587 24.8177H236.26Z" fill="white"/>
<path opacity="0.8" d="M273.974 75.8495C273.739 74.8312 273.302 73.8704 272.689 73.0238C272.076 72.1772 271.299 71.462 270.405 70.9205C269.511 70.3789 268.518 70.022 267.484 69.8707C266.45 69.7194 265.396 69.7769 264.384 70.0398C263.202 67.5215 261.149 65.516 258.604 64.3939C256.058 63.2717 253.193 63.1087 250.537 63.9349C249.154 61.6411 247.151 59.7855 244.758 58.5827C242.365 57.3799 239.681 56.8792 237.015 57.1384C234.35 57.3975 231.812 58.4061 229.696 60.0473C227.579 61.6885 225.971 63.8953 225.056 66.4124C223.575 65.5879 221.903 65.1649 220.207 65.1854C218.512 65.2058 216.851 65.669 215.389 66.5289C213.928 67.3889 212.716 68.6158 211.875 70.0881C211.033 71.5605 210.591 73.2271 210.592 74.9229C210.592 75.2406 210.609 75.5564 210.64 75.8685L273.974 75.8495Z" fill="white"/>
<path opacity="0.8" d="M97.6099 68.6826C97.8153 67.7944 98.1965 66.9564 98.7312 66.218C99.2659 65.4797 99.9431 64.8559 100.723 64.3836C101.503 63.9113 102.369 63.6001 103.271 63.4683C104.173 63.3364 105.092 63.3867 105.975 63.616C107.003 61.4182 108.792 59.6672 111.012 58.6868C113.231 57.7063 115.731 57.5628 118.048 58.2828C119.254 56.2835 121.001 54.6662 123.087 53.618C125.174 52.5698 127.514 52.1334 129.838 52.3593C132.162 52.5852 134.374 53.4642 136.22 54.8946C138.065 56.325 139.468 58.2484 140.266 60.4426C141.558 59.7242 143.015 59.3556 144.493 59.3733C145.97 59.391 147.418 59.7944 148.692 60.5436C149.966 61.2928 151.022 62.3618 151.756 63.6447C152.49 64.9276 152.877 66.38 152.877 67.858C152.877 68.136 152.863 68.4102 152.837 68.6826H97.6099Z" fill="white"/>
<path d="M214.53 111.884L215.267 120.858L220.48 114.995L237.336 101.189L222.963 105.718C222.963 105.718 215.886 109.157 215.561 109.611C215.235 110.064 214.53 111.884 214.53 111.884Z" fill="#50BFA5"/>
<path d="M206.889 108.029L237.336 101.181L214.528 111.883L206.889 108.029Z" fill="#96D9C9"/>
<path d="M226.238 118.529L216.852 113.846L237.336 101.181L226.238 118.529Z" fill="#96D9C9"/>
<path d="M210.974 116.867C211.767 116.559 212.592 116.343 213.433 116.222L213.365 115.569C212.47 115.695 211.592 115.924 210.749 116.252L210.974 116.867Z" fill="#3C8F7C"/>
<path d="M195.951 169.903C197.158 168.803 198.263 167.596 199.251 166.295L199.775 166.688C198.763 168.023 197.631 169.261 196.391 170.387L195.951 169.903ZM201.787 162.119C202.108 161.444 202.403 160.74 202.666 160.027C202.963 159.222 203.234 158.378 203.447 157.521L204.081 157.684C203.858 158.554 203.591 159.411 203.281 160.254C203.012 160.986 202.714 161.709 202.379 162.401L201.787 162.119ZM204.435 147.772L205.089 147.757C205.134 149.424 205.081 151.092 204.928 152.752L204.276 152.689C204.425 151.055 204.479 149.413 204.437 147.772H204.435ZM203.5 137.938L204.149 137.845C204.425 139.765 204.62 141.333 204.768 142.781L204.115 142.848C203.971 141.41 203.777 139.85 203.502 137.94L203.5 137.938ZM202.767 132.998C202.511 131.351 202.428 129.683 202.519 128.019L203.173 128.06C203.087 129.678 203.168 131.301 203.415 132.902V132.939L202.765 133.028L202.767 132.998ZM203.591 123.09C204.229 121.508 205.2 120.081 206.437 118.907L206.889 119.383C205.719 120.493 204.801 121.842 204.198 123.338L203.591 123.09Z" fill="#3C8F7C"/>
</svg>
