<svg width="42" height="38" viewBox="0 0 42 38" fill="none" xmlns="http://www.w3.org/2000/svg">
<g opacity="0.4">
<path d="M16.2305 23.4394L20.918 18.752M20.918 18.752L25.6054 23.4394M20.918 18.752V36.5644" stroke="black" stroke-width="2.5" stroke-linecap="round"/>
<path d="M12.335 29.8833L9.74943 29.8332C5.39927 29.3667 2 25.6855 2 21.2033C2 17.2751 4.61211 13.9584 8.19047 12.8873L9.17522 12.5925L9.33398 11.5829C10.0593 6.96935 15.7092 2 21.2307 2C26.7522 2 32.4021 6.96935 33.1275 11.5829L33.2862 12.5925L34.271 12.8873C37.8493 13.9584 40.4614 17.2751 40.4614 21.2033C40.4614 25.6855 37.0622 29.3667 32.712 29.8332L30.1264 29.8833" stroke="black" stroke-width="2.5" stroke-linecap="round"/>
</g>
</svg>
