<svg width="101" height="31" viewBox="0 0 101 31" fill="none" xmlns="http://www.w3.org/2000/svg">
<rect x="50.6067" width="50.2703" height="31" rx="5" fill="#CD291B"/>
<path d="M59.4237 22.6218V8.32617H64.4311C66.1657 8.32617 67.4813 8.66 68.3781 9.32765C69.2748 9.98876 69.7232 10.9608 69.7232 12.2437C69.7232 12.9441 69.5432 13.5627 69.1832 14.0994C68.8232 14.6296 68.3225 15.0191 67.681 15.2678C68.4141 15.4511 68.9901 15.8209 69.409 16.3773C69.8345 16.9336 70.0472 17.6144 70.0472 18.4195C70.0472 19.7941 69.6087 20.8348 68.7316 21.5418C67.8544 22.2487 66.6042 22.6087 64.9809 22.6218H59.4237ZM62.3692 16.3969V20.2555H64.8926C65.5864 20.2555 66.1264 20.0919 66.5126 19.7646C66.9053 19.4308 67.1017 18.9726 67.1017 18.39C67.1017 17.0809 66.4242 16.4165 65.0693 16.3969H62.3692ZM62.3692 14.3154H64.5489C66.0348 14.2892 66.7777 13.6968 66.7777 12.5383C66.7777 11.8903 66.5879 11.4255 66.2082 11.1441C65.8351 10.856 65.2427 10.712 64.4311 10.712H62.3692V14.3154Z" fill="white"/>
<path d="M71.6378 17.2118C71.6378 16.158 71.8407 15.2187 72.2466 14.394C72.6524 13.5692 73.2349 12.931 73.9942 12.4794C74.7601 12.0277 75.647 11.8019 76.655 11.8019C78.0885 11.8019 79.2569 12.2404 80.1602 13.1176C81.07 13.9947 81.5773 15.186 81.682 16.6915L81.7017 17.418C81.7017 19.0479 81.2468 20.357 80.3369 21.3454C79.4271 22.3272 78.2063 22.8181 76.6747 22.8181C75.143 22.8181 73.919 22.3272 73.0026 21.3454C72.0927 20.3635 71.6378 19.0282 71.6378 17.3395V17.2118ZM74.4753 17.418C74.4753 18.426 74.6652 19.1984 75.0448 19.7352C75.4244 20.2654 75.9677 20.5305 76.6747 20.5305C77.3619 20.5305 77.8987 20.2686 78.2849 19.745C78.6711 19.2148 78.8642 18.3704 78.8642 17.2118C78.8642 16.2234 78.6711 15.4576 78.2849 14.9143C77.8987 14.371 77.3554 14.0994 76.655 14.0994C75.9612 14.0994 75.4244 14.371 75.0448 14.9143C74.6652 15.4511 74.4753 16.2856 74.4753 17.418Z" fill="white"/>
<path d="M87.2785 15.1696L89.0655 11.9983H92.0994L89.0753 17.202L92.227 22.6218H89.1833L87.2884 19.2835L85.4032 22.6218H82.3497L85.5014 17.202L82.4872 11.9983H85.5309L87.2785 15.1696Z" fill="white"/>
<path d="M3.42773 20.3633H9.39453V23H0V8.78125H3.42773V20.3633Z" fill="black"/>
<path d="M10.2734 17.6191C10.2734 16.5645 10.4785 15.627 10.8887 14.8066C11.2988 13.9798 11.888 13.3451 12.6562 12.9023C13.4245 12.4596 14.3262 12.2383 15.3613 12.2383C16.9434 12.2383 18.1901 12.7298 19.1016 13.7129C20.013 14.6895 20.4688 16.0208 20.4688 17.707V17.8242C20.4688 19.4714 20.0098 20.7799 19.0918 21.75C18.1803 22.7135 16.9434 23.1953 15.3809 23.1953C13.877 23.1953 12.6693 22.7461 11.7578 21.8477C10.8464 20.9427 10.3548 19.7188 10.2832 18.1758L10.2734 17.6191ZM13.5645 17.8242C13.5645 18.8008 13.7174 19.5169 14.0234 19.9727C14.3294 20.4284 14.7819 20.6562 15.3809 20.6562C16.5527 20.6562 17.1517 19.7546 17.1777 17.9512V17.6191C17.1777 15.7246 16.5723 14.7773 15.3613 14.7773C14.2611 14.7773 13.6654 15.5944 13.5742 17.2285L13.5645 17.8242Z" fill="black"/>
<path d="M27.8711 23C27.7539 22.7852 27.6497 22.4694 27.5586 22.0527C26.9531 22.8145 26.1068 23.1953 25.0195 23.1953C24.0234 23.1953 23.1771 22.8958 22.4805 22.2969C21.7839 21.6914 21.4355 20.9329 21.4355 20.0215C21.4355 18.8757 21.8587 18.0098 22.7051 17.4238C23.5514 16.8379 24.7819 16.5449 26.3965 16.5449H27.4121V15.9883C27.4121 15.0182 26.9922 14.5332 26.1523 14.5332C25.3711 14.5332 24.9805 14.9173 24.9805 15.6855H21.6895C21.6895 14.6634 22.1224 13.8333 22.9883 13.1953C23.8607 12.5573 24.9707 12.2383 26.3184 12.2383C27.666 12.2383 28.7305 12.5671 29.5117 13.2246C30.293 13.8822 30.6934 14.7839 30.7129 15.9297V20.6074C30.7259 21.5775 30.8757 22.3197 31.1621 22.834V23H27.8711ZM25.8105 20.8516C26.2207 20.8516 26.5592 20.7637 26.8262 20.5879C27.0996 20.4121 27.2949 20.2135 27.4121 19.9922V18.3027H26.4551C25.3092 18.3027 24.7363 18.8171 24.7363 19.8457C24.7363 20.1452 24.8372 20.3893 25.0391 20.5781C25.2409 20.7604 25.498 20.8516 25.8105 20.8516Z" fill="black"/>
<path d="M35.5664 12.4336L35.6738 13.6738C36.403 12.7168 37.4089 12.2383 38.6914 12.2383C39.7917 12.2383 40.612 12.5671 41.1523 13.2246C41.6992 13.8822 41.9824 14.8717 42.002 16.1934V23H38.7012V16.3301C38.7012 15.7962 38.5938 15.4056 38.3789 15.1582C38.1641 14.9043 37.7734 14.7773 37.207 14.7773C36.5625 14.7773 36.084 15.0312 35.7715 15.5391V23H32.4805V12.4336H35.5664Z" fill="black"/>
</svg>
